<mxfile host="app.diagrams.net" agent="Mozilla/5.0 (Windows NT 10.0; Win64; x64) AppleWebKit/537.36 (KHTML, like Gecko) Chrome/131.0.0.0 Safari/537.36 Edg/131.0.0.0" version="26.0.2">
  <diagram name="第 1 页" id="Sz5aTsn80AUage_Cka8P">
    <mxGraphModel dx="1773" dy="529" grid="1" gridSize="10" guides="1" tooltips="1" connect="1" arrows="1" fold="1" page="1" pageScale="1" pageWidth="827" pageHeight="1169" math="0" shadow="0">
      <root>
        <mxCell id="0" />
        <mxCell id="1" parent="0" />
        <mxCell id="uhHyhwN9qYvKIad209VK-7" value="" style="endArrow=none;html=1;rounded=0;fillColor=#1ba1e2;strokeColor=#006EAF;" edge="1" parent="1">
          <mxGeometry width="50" height="50" relative="1" as="geometry">
            <mxPoint x="-50" y="390" as="sourcePoint" />
            <mxPoint x="230" y="390" as="targetPoint" />
          </mxGeometry>
        </mxCell>
        <mxCell id="uhHyhwN9qYvKIad209VK-8" value="" style="shape=image;verticalLabelPosition=bottom;labelBackgroundColor=default;verticalAlign=top;aspect=fixed;imageAspect=0;image=data:image/png,iVBORw0KGgoAAAANSUhEUgAAArsAAAG8CAYAAADejm2nAAAAAXNSR0IArs4c6QAAAARnQU1BAACxjwv8YQUAAAAJcEhZcwAADsMAAA7DAcdvqGQAABzaSURBVHhe7d1NjuRYVwZgZ3U3g28GzFkBI7bAjAFiBawB5mwGiQELYAMsADbBECGBEELi6+5kUBmdUa4Ih3+ur88593mklOyIyEr/nHP9xg1n1ts0Te8TAAAU9GX+AAAAVCHsAgBQlrALAEBZwi4AAGUJuwAAlCXsAgBQlrALAEBZwi4AAGUJuwAAlCXsAgBQlrALAEBZwi4AAGUJuwAAlCXsAgBQlrALAEBZwi4AAGUJuwDAcN7nD1CWsAsADEXQHYuwCwBAWW/e4AAAI3gWeN7mD1CKmV0AoLxnQZf6hF0AoKx3QXd4wi4AUNLakLv2deTknl0gnL+dpunPp2n6dZqmXz6+ji7//OTxLcvz9Z7LwDZbw437dusSdoFw/nSapj/5+Ojph4+vo8s/Pnl8y/J8vefy25MQPF+PsDxf/7XRm42ty/P1vcu/zguUFLaGG2G3LmEXIIlb+I0SwJ8tz9e/NHqzsXV5vn5k+f1BCN6zPF/vtfzzk8cfrUdYvl/fGlK2vv5G2K1L2AVCenfxIZhHIXjr8ny91/KPTx5/tB5h+X79y0Iovl/+x2ma/mZ+0jYy5tQk7ALh3A9KLj7A24MQfL/87/Nv2Ml4U5OwC4TybEByEQIeeTZm7GGcqUnYBUJYOxC5GAE3a8eNLYwx9XyZPwDQ25YL1pbXAjW9GwvYQNgFAKAsYRe41J7ZmT3fA+RnRpc9hF3gMkcuWke+F8inV8/3+jn0I+wCl2hxQTHLA2PQ5xzhrzEA3Z016PgtaqjlrLHiFWNJLcIu0E2PwcZFCmroMV68YjypwW0MQCkRLpDAfm5PojVhFwCAsoRdoIueMzU9fxbQjt7lDO7ZBU535SDjnjvI4cpxYokxJD9hFzhVlAHGBQtiijJGPGPsyM9tDMBpIl3EIm0L8JW+pAdhFzhFxItYxG2CEfmLC/TkNgagqSwDio8m4RpZxoh7xovczOwCAFCWsAs0k2nGJtO2QhX6jiu4jQFoIvNA4iNKOFfm8WEyRqQn7AKHVRhEXMygvQpjw40xIi+3MQCHVLmYVdkPiEJPEYWZXWCXygOHGRw4puL4YFzIy8wuAABlmdkFNhth0DCLA9tVHxuMCzmVCrt/MU3Trx9f7yuW5+tHlufra5chm9Hq1sUN1hlhbDAe5FQq7P7Tx30ZXz527NXyfP3I8nx97fLbgxA8Xz+yPF8/sjxfb7U8X19a/uXJ43v+rVfL8/Ujy/P1Vsvz9flya2f8mxm8zR8AfjPSuGAsyOmtSp2+Jy7CW+g9GpwfLc/XjyzP11stz9eXln948vief+vV8nz9yPJ8vdXyfH2+/PYkBD9anq/fL//LNE1/NS/cAb3NH4DBlQgQGxkH8nmrUqvznVCM8NUt9D4LxGuC87/N/9GBGVvgq/l1dxTGgHzKht1JQcJhj/oKYwtjG31c0P/5fJk/AAAAVZQOu6O/+wTO8W58YVDqXv9nVDrsTgoSdtM7rzlGjELAI7PyYXfSoLCZnllPCKA69U12Q4TdyQUJVtMn+zhuVKSun3Ns8hgm7N4IvfCc3jjG8aMK10oqGS7s3mhi+JaeaENIIDP1S0XDhl0AAOobOux69wpmcs7imJKNmt3OMcth6LA7udAzOLV/LuMLWahTKhs+7N5odEaj5vtxrInKGzJGIOze0fCMQq3355gTjZpsw3GM763KeWq9E2/zB6CI1r3CdsYXrmQMaE9Px2ZmFwCAsoTdJ7zzpRr35sXhXHAVdceIhN0FLkhUoY5jcl7oSb2dx7GNTdhdQRGTmfqNzfnhbCZuGJ2wu5KBgozUbQ7OE2dRW+CvMWzmNy7JoldP0JYxhhb0/3X0cDxmdjfycRAZqNG8jDEcpX7gW8IuAABlCbs7mX0hInVZh/PIHuoGvifsHmRgIQq1WI9zylre6MbhPMQj7DagsIGzGF9YIuTCa8JuIwYbrqT+ahNoeERNwDrCbkMGHq6g7sYh9HKjDmJzfmIRdhu7XYwUOj2oszE572Nz/mEbYRcAgLKE3RN5982Z1NfYnP/x+NQQ9vHfBXfgvw6kpci1Tn/Gl/r0fF76MwYzux0YqGhFLTF3m+1TGzU5r3CcsNuJAYuj1BCvqJFanE9ow20MF/HRBltkq2+uZXzJTb/Xoh+vZ2YXAICyhN2LeOfOWmqFrdRMXs4dtCfsXsigxhK/dMQRaicX/Q7ncc9uAO7nYS5zPROTcSYu/V6f/ruWmd0ADHTcUw+cQV3F5LzA+YTdIHyExaQGOJn6isOYD/0Iu8EYAMflvNODOruWMR76E3YBAChL2A3KO/+xON/0pN6u4biPy4z+tfw1huD8BmdtVeuWXIwz59PrTHrtMmZ2g/NusC7nlSjU4rkcX7iWsJuEwbIW55No1GR7JiuYUw/XEHYT0STAmYwxbQi5EIuwm4xBND/nj8jU5zGOH8Qj7AIAUJa/xpCY3+rMZ8Q6JTfjzHr6m7X0VV9mdhNzS0MuzhUZqdvXjMUQm7BbgEE2NhdCslO/zzk2EJ+wW4QBNybnhSrU8re8ieUItdOXsFuI5onF+aAaNf2V4wC5CLsAAJTlrzEU5Tc9r6UeGcGI44zeppUR++cqwm5xmqk/tchIRhlj9DVnGKV/ruY2huIM0P34hRVGVL3m9TXkJ+wOwEB9PseYkVWt/6r7BaMRdgdh0D6PYwv1+qDa/hCTOutD2B2IpmrPMYVPt4/8s/dF9u0HviXsAgBQlr/GMDC/BXqMmoNl2cYYPc0VsvVJRsLu4DTZPuoN1skwxuhnIsjQK1m5jWFwBvltKtyPCD1F75fo2wccJ+xisF/JcYJ9or5JjLhNQHtuY+A3PkJ5Tn1BO1ePNfqZqK7ujarM7PKbqLMvQC1XjTPGOBiTsAsAQFnCLt8x+/EtxwLa691XvX8eEIewy1MuDo4BnKlXf/X6OXCUWj2HsMuikRtv5H2HXs7+JOnMfxvIwV9jYJWRfkNULcF1Wo01+pisWvUAn4RdNqnehOoIrndknNHDVHCkB/ie2xgAAChL2GWTyrMmlfcNMtnbi3u/D6hN2GWzs3+h5ArV9gey29qTW18PjEPYZbcqF5cq+wHVrH1jveY1kImabssvqNFExpvp1QzkMh9n9DCVzeud/czs0kS2i0627QU++3btjC/AZGaX1jK8E1UrAGSR4boanZldAADKEnZpKvqsafTtAwDaEnZpLur9dBG3CQA4l3t2L7b2Xpys+zdt2MczZT5+AIwtwnU0M2H3IkcKN9u+Tgf394iMxwoA7l11Da3CbQwJvSUs/CtC5xU/EwCIxczuBc4KqhmOwVn7PpfhWADAWr2unxWZ2QUAoCxht5AMtzf0mHHt8TMAgByE3YIyBN7bFwDAmYTdom6zvBmCb0ut/z0AIDdhdwDRQ2+LgGqmGIDKXOP2E3YHUjXwHvleAKA2YfcCV4azyLc37Dkue74HABiHsAsAQFnC7sCizu6una1d+zoAqMB1bx9hd3CRb2lYauql5wAAboTdi0QLaxED7/TkOD16DADgkbcq2SHjTmQKmFfLWKhRz2902c4zQG+uL9uY2b1Q1It6xFsboh4rACA2YRcAgLKEXZ6KNrsLALCVsHux6B/PC7wAEMurv1jEt4RdXhJ4AYCshN0AMrw7i/hLawAArwi7bCL0AkAMGSbLIhB2g8h2/43AC3F4EwrwnLALAEBZwm4wZneBLe77UE8CfE/Y5RAfn0IsehLGkmmS7CrCbkAZC9fFFfpb6rul5wBGIuwGJfACS9b025rXAFQn7AYm8AKPbOmz220NW74HyCVjXuhJ2KU5F1WISW8CIxJ2AQAoS9gNLtt/NnFjBgnaa3E7wtHvB8hG2E0ia+B1YYU2WvZSy38LiCFjTuhF2E0kayG7sMIxZ/SQX1wDRiHsJiPwAq3pT6AyYZduXFBhu1590+vnAOfJOiF2NmEXAICy3qq8ESixExtknYUZ6TxlPUdXG6lGXrmqhpwDKtrbT9n6Ye9+VibsJpa1oEc5V1nPz9VGqY81rq4h54Kszuyd6H1x5r5nJewWkLGwRzhfGc9LBCPUxhpR6sf5IJPefRO5P3ofi8iE3SKyFnXl85b1nFytck2sEbVuRj8vxBWhZyL2R4TjEoVfUCsiYqOtoRnhU+R+iLxtjOktUF3etiXK9vAtYbeQrIEXyMGFnKtlCJVRtk8m+CTsAgBQlrBbTMZ3chHeAcPVsvRBlFkrxpOt7rJtb2XCbkECL+SSsf6FXnrKWmtZt7saYbeo94Sh16DAiLLXffbtJ77sNXbl9mfLAWcRdotT6MDZrryYU1uV2vJJyLWE3QFkCrwGBEZSqdZvvVtpn7hWxVqquE8ZCLuDyHZbgwGBEWTqyS30L0dUf9PUe9+qjjNbCLsAAJQl7A4m2wwvVFe1H3vPXlHDKHUzyn5GIewOKsMF1mDAKKq+CdXDbDFavYy2v1cSdgdW8eIKmVXsydv9ly7scJ2KY8sWwu7gojeACySjqTrLO+lnFoxaG6Pud2/CLqUvrpBV1b50cQd6E3YBACjrrcrkQYmdCCLizEvG8xvxOGaQ8VyfrWotOddMhet7q179MOLxNrPLd3o1HLBO1Z4c8aIL9Cfs8lC0+wVdFBndrScj9WUL/lLD2Jz7T47FeYRdFlW7sEIFFftS6AXOIuzyUsULK2RXtS8F3jF4c/NYj2NSdexYIuyySoSPUA2O8K0r+/FM+hxoSdgFAKAsYZfNqs4mQUYRPnU5g9ldoBVhl10qXlwhu2o9ebt1SfCFtqqNFa8IuxxSdVYJsqraiwJvHc7lMsenPWGXZoReiKFqLwoBwB7CLs1VvdBCNhX70K0N0EbF8eEZYZfTtL7FoeW/BaOo3DcCL7CGsAsAQFnCLl0cneXd+33AV1V7yOwu8IqwS3f3wffVBXjNa4B1qvaTwAv7VBwPHnmrsq8ldoJSXID30ct9VK1P9RNf1dprqWcdj3A+zOwCDKjnxbQnf6kBmBN2AQa19naijAReWKdi/88JuwAAlCXsAlBydsctDcAk7AJwUzHwTgIvDE/YBeA3Ve/jFXjhuYo9f0/YBeChahc/tzXEUK2uWnN82hN2AXiq4oVX6IWxCLsALKoYeCeBF75TtdeFXQAAyhJ2AXip6i+wmN2F+oRdAFarGHpv9/AKvv1UrKMWHJNzCLsAbFb1oizwMrqKvS3sArBL1dk5gbefivWzl2NxHmEXgEMqXqTd1gB1CLsAHFYx8E5CbxdVa2etiJ+QRNueo4RdAADKEnYBaOI2Q1VtVmgyuwupCbsANCfwskXFellj1P3uTdgF4BQVL+Tu4WUUlfpX2AXgNJUumPeE3vaq1sozo+3vlYRdAE7lXl7Wqlgjj4yyn1EIuwB0U/Eib5a3rapvjG4y7VumbV0i7AIAUJawC0BXVWaL5szutlWxTiruUwbCLgDdVf2oWuBtq0qNVK33LIRdAC5TMQS4h7et7PVRYfuz74OwC8Dlsl9MHxF628laH1m3uxphF4AQqgYDgbeNbPWRbXsrE3YBACjrrcqbjxI7QSlmc/bRy0xF+0dttxW1Riqf56jH/BVhF06SdVC4ml7mpnIPqfN2ItTJKOczwrHew20MAIT0XjhEZA0NEd3q5Ipauernso2wC0BoVQOFwNtej1q5Mlyzj9sY4CQuZPvoZZZU7St1f769tePcfNp7DK8m7MJJsg4KV9PLvFK5t9Q/kWXtPbcxAABQlrALQCqV75nMOnMGkQm7AKQl8AKvCLsApFY18Aq90IawC0B6FQPvJPBCE8IuACVUvZfXLC8cI+wCUE61wDsJvbCbsAsAQFnCLgAlVZzdnczuwmbCLgBlVbyHdxJ4YRP/XTAAQ6gUEF3zuELWHjKzC8AQqszyVtgH6EnYBWAoVUIvsI6wCwBAWcIuAEPKOLubcZvhamXCbtabpgG4TqbwmGlbIZIyYRcA9oh+D2/07YPohF0ACBoqo20PZCTsAsAdARNqEXYBYCZC4I2wDVCBsAsAQFll/rvge+V2CIBL9f6LP65jRNS7D1oxswsAL/QMnz1/FoxA2AWAFXqE0B4/A0Yj7ALASmeF0Yh/9gyqEHYBYINbMBVOIQdhFwB2ahF4W/wbwHPCLgAAZZUMu1n/NAYA+RyZmT3yvcA6JcMuAPS05x7era8H9hF2AaCRtQF27euA44RdAGhozywvcB5hFwBO8Cj0PnoMOJewCwBAWWXDrr/IAEAEt5lcM7pwjbJhFwCiEHThOsIuAABlCbsAAJQl7AIAUJawCwBAWcIuAABllQ67/vwYAMDYSoddAADGJuwOxEw3ADAaYXcwb0IvADAQYXcQ84A7XwcAqEjYHcCzYPvscQCAKoRdAADKKh92R5+9fLX/r54HAMisfNjlNYEXAKhK2C3KX10AABB2S9oTcvd8DwBAdMJuMUdCq9lgAKAaYRcAgLKGCLujzFa22s9W/w4AwNWGCLtsJ/ACABUIu0WcEU7P+DcBAHoSdgs4M5Se+W8DAJxN2E2s119P6PEzAADOIOwm1TuA9grWAAAtCbsAAJQ1TNg1M9mGYwgAZDJM2K3k6sB59c8HAFhL2E0mStCMsh0AAEuE3UQETACAbYRddhO+4Vt+NwAgnrdpmt7nD1aXcYejX0AzHlNo4Vlv6gmgmmfjXXRmdgEAKEvYDS7Lx6IZthFaW6r7pecA6EfYDSzbxTLb9sIRa+o9y5tVgMqE3aCyXiCzbjestSfAbn09AO0IuzTnwk5VR2r7yPcCsJ+wG1CFi2KFfYCbPbO5j7T4NwDYRtgFAKCst1H/HGTUna448xP1WMMrZ/WjngAyOmtMPJuZ3SBafUwaUdX9orYz67ZyvwNEI+zShQs7mfSq114/B2Bkwm4ALnhwvdtsa+9+7P3zAEYj7F5spAvdSPtKLlfX5tU/H6AyYfdCI17gRtxnYotSk1G2A6AaYRcAgLKGDbtXz6Jc/fOvNPK+E8cV9+e+Em17ACoYNuxyrYhBgzFEr73o2weQjbB7AReyT44FPWWqt0zbChCZsNuRGZvHHBPOlrX3Mm4zQDTCbicuWsscH86Svbaybz/rZH1DBhkMHXZ7DSy9fk52jhMtVQoPVfaD1yrVLUQxdNgFAKA2YZdQzGpwVNUaqrhPfPXo3D56DNhH2D2ZAWsfx409qtdN1SA/sqXzufQcsJ6weyID1TGOH1uMVC8j7Wtla87j7Q3OmtcCjwm7JzEwwflGDgIj7vPonHPYR9glNIM7z6gNxyCzvedu1Dd3cMTbNE3v8wdH1OogGITO0er8UIM++5b+yKNl7Trv9NayfnsyswsAQFnCbkNZ3/Fk4Ngy+Qj3KcdlTM45rOM2hg9HD4JBp5+j54qc9Ng6+iOus2vYuedsZ9fwWczsNpD15GfleI/FrOU2jlVMPc5Lj58BGQm7pGRQr0/I3c9xi6Xn+dA38D1h98PewWHv93GcY1+Xc3ucYzg2oRc+CbsAAJQl7O7kXXMMzkE9zmk7juX1rj4HV/98iODNL3B+WnsgDB7xrD13xKSnzqdH+otW12qAo6LV9FpmdjfKeqKrM9Oel/PWh+OMGmBUwi5wGRffvhzvPiK/+b5tW9TtgzMIuxsYHOJzjnJwsb2O436uTMc307bCEcLunaXGX3qOWJyruITcGJyDc2Q8rhm3GbYSdgEAKEvYXcE733ycs3ick1icD2584sIamWvkzV8j+dajg5H5BI/u0fmkL/0Tnz45rkqdqwXmKtS2sDtzfzAqnGC+UuTX0EN56JH9qta5mqBKbQu7M7eDUeUE80mh96F3ctMn21WuefUwrkp1LezOCLufvkzT9NM0TT9+fN0vz9efLc/Xny3f1m+PvXrdq+X5+k/TNP3DNE1/N99JmtI3NbgorDdCzauH8VSra2H3gfeFE/0qUD1anq8/W56v3we/Na9bWp6vP1u+X/9lmqbfT9P088fX/fJ8/dnyfP3Z8m399tir171anq//fpqm/5ym6b8U/Gme9Qx56ZXnRq13NVFfxdoWdmf+epqmv5+m6T8ehL+3FYHq0fJ8/dnyfP0++K153dLyfP3Z8m39l/mBKUTBn6PiADk6vfLcqPWuJuqrWNvC7szvpmn6n2ma/vhBGHSg6nAu26k4MPJJr3xv9JpXE3VVrW1h94Gl2xioQ+Efo0fGoVe+pfa/Uhd1VK9pYZfhaYDtqg+MfE+ffKX2v6Uu8huhpv0PasBqb4MMjHzPeXcMHnFMchvl/JnZBU2wyiiDIstG7hU98NrI9ZHNSPVsZhcAgLLM7MIHjfDcSDMArDNav+iB9UarjYxGq2dhF+5ohk+jDYZsN0K/6IP9RqiPjEasaWEXZjTEmIMh+1TuF31wXOX6yGbkehZ24YlRG2PkAZF9qvaKXminao1kMXotC7uwYKTmGH0w5JhqvaIfzlGtTjJQy8IuvFS9QQyEtFKlV/TEuarUSQZq+St/egwAgLLM7MIKVZvEu37OkLlf9EQfmWskC7X8SdiFlSo1ikGQs2XtF73RX9ZaiUoNf89tDLBSlQGkyn4QW8Y6y7jNFTju7TiWj5nZhQ0yN4tBkCtk6Bm9EUeGeolKHT8n7MIOmZrGAMjVoveLHokler1EpIaXCbuwU4bGMQASScSe0SNxRayXiNTwa+7ZBQCgLDO7cEDk5vFun4gi9YweySFSzUSjhtcRduGgSA1k4CODCD2jV3KJUDORqN9t3MYAB0UZdKJsB7yiVtnqTd38xnHYzswuNHJlIxn8yOiqntEv+V1VO1dTu/sIu9BYz4Yy8JGdfmGvnrUTgfrdz20MAACUZWYXTtCjqbzLpxI9w149audqavcYYRdOclZjGfSo6qyemfRNeWfWztXU7nHCLpyoZXMZ8BhBy5650TtjOaOGrqR+jxN24WQtGsxgx0ha9MyN3hlTyxq6itptxy+oQXAGPEaj5jkqew1l3/5ozOxCJ1sazUDHWl+mafrx4+uHu+VX60vPzdeXnrut/7Tw3LP1ped+nKbpz+Y7u5E+Yto49kagbtsTdqGTLY1msHvsbSEYbQlRa1/77LlHwe7Zax+tLz03X3/13C/TNP388XW//Gp96bn5+tJzt/XfLzz3bH3puZ+nafrXeQFspI+YNo69Eajb9oRd6GhNs90PdPNw82p96bn5+tJz9+s/LTz3aH3pufn60nPz9R8+jt+zYLQlRK197bPnHgW7Z699tL703Hx96blf72qlsjV9MycwMLenjnpTt+cQdqGzpYb737tg9/Yg3LxaX3puvr703P367xeee7S+9Nx8fem5+fov84PFUJb65hGhgWe21lIvavY8wi5cYN50f/gg5M1fA6Nb0xMCA2usqaVe1Oz5hF24yLtBDjZbumDpp/h+2vn1Bw8ee/a19rV/Od+4C6jZPoRdAFJ5dNGqHBrmIW3t19rQt/W1e7++fNwWtefr/x489uxry2tvX/88P+gdVK7ZaIRdAFK6v3jNg8M8aK392hL6trx271fkgLj1K/ovVPYMQ/N65VzCLgAp3V+8/ltA5KCeYUjY7UvYBSCl303T9D/TNP2RgEhDZ4ciQbc/YRcA4M5ZwUjQvYawCwDwQKuAJOReS9gFAFhwJCgJutf7Mn8AAIBPewPr3u+jLWEXAICy3MYAALDS2tBkVjcOYRcAYKOl8CToxuI2BgCAjZ4F2mePcx0zuwAAB7wLuaEJuwAAlOU2BgAAyhJ2AQAoS9gFAKAsYRcAgLKEXQAAyhJ2AQAoS9gFAKAsYRcAgLKEXQAAyhJ2AQAoS9gFAKAsYRcAgLKEXQAAyhJ2AQAoS9gFAKAsYRcAgLKEXQAAyhJ2AQAoS9gFAKAsYRcAgLKEXQAAyhJ2AQAoS9gFAKAsYRcAgLKEXQAAyvp/ieukgGU5IRUAAAAASUVORK5CYII=;movable=0;resizable=0;rotatable=0;deletable=0;editable=0;locked=1;connectable=0;" vertex="1" parent="1">
          <mxGeometry x="120" y="520" width="699" height="444" as="geometry" />
        </mxCell>
        <mxCell id="uhHyhwN9qYvKIad209VK-9" value="1" style="text;html=1;align=center;verticalAlign=middle;whiteSpace=wrap;rounded=0;" vertex="1" parent="1">
          <mxGeometry x="670" y="540" width="50" height="20" as="geometry" />
        </mxCell>
        <mxCell id="uhHyhwN9qYvKIad209VK-10" value="" style="shape=stencil(rVdLblsxDDzN2xKSqB/XaXqPAHFqo64dOO7v9qX6INeU7AkCdPcscyRySI6ohR/etk+vmyW4t/Pp+HXzc/d83i78aQlhd9huTruzfi38uPDDy/G0+XI6fj88r79fn5pl+/p2/NF2+LXiPFOqDRXc73XFkfN/Fz6v9vvd4co+ZIrB2HsKfN8+esre2HNfuGmfKokz9kIJ7J8rBWuvDnG9DyiOxAbAiSI4oWgExQCSp5qBS4lcNgB1MkXAUaFqY6i+s3ATwJ68TVoVKuAEdpTZAJQGX4BLuh9PMQgIeqoLBUSQ6MrkJwAnAFAHBoB0Gm4ChPt+l6A9JRC0FPK2VkuiAIIW6SFeAEIC8uCddteQaq0WUH1SqdqoxWFAHk+Q2FNzG6DVbFOtPKBiqpmK5VV5yMAlreZQR4CA2ii5a9AFgDtIExuHExJl1KO1l/8F4LsQ3q1vy1KjAQnTDPBQ+ZpLNgaloYAYWtBiAYEykj6ldeqginrU9/K/buoPlYYCyjvFF0dhQizJVBqFSd5poEH6VGeAS7d6lCFiloGKtW8WGtUqB1LdpMzSpDwUkOomlsMJAgW/ybEFXPHwnxApTU0nMAouY0sogAFPOrzEgacCdaD04eJKXQOw9ypcQ0foVQ145UkGUuy5vDcwFTs9tBEKkSTjBBdwz4XpXgwRznDeTScEiuCqLmMIOpMVcI+mMc2axwT6h0cN8BoxKDzfi+Zin6H/buw2nZLRPDYJhtcBDcTrRn9qv77uuB/t9gkOGcqO7TKG5OiIY6sBz55lFGzVazjxjNMz1oiPvkfet9ePf4+fl91+v76drv8fH0u6tD60+PEP);lineShape=1;strokeColor=default;" vertex="1" parent="1">
          <mxGeometry x="413.4740898779862" y="555.054020400875" width="10.265305263148807" height="10.967452664997447" as="geometry" />
        </mxCell>
        <mxCell id="uhHyhwN9qYvKIad209VK-11" value="" style="shape=stencil(lVfLbhsxDPwaXwmJlETqnKb/ESBOY9S1Ayfp4+9LY7Fbi2tPk9tG4ZiP4ZDSRu5enx9ethtOr2+n4/ftr93j2/NGvmyYd4fn7Wn35l8bud/I3dPxtP12Or4fHqe/Xx7OluevH8ef51/4PeFYqNYzitOf6SRRng6+Tvb73eHCvmRqLdindNu+CbUS7Dnftje3l8FeSUA8ZqR5sGePEDnIZDYApFESkEGh3AdATdRQiQrVMeXmORv0EGpaPSuUtJM25tAqZZBDV+IxBxVSvQ3IaaF1RlgnBkRXIdEBcPEb1+vUqPKA6J0KoK6kuRUWgFLj2wCpVMdm6oUMhCQcqeuZGNRJMumYg3m/Aq5FZqIWgMw+rwNaFIS5QhtUqI3dpEq1A4DNKS6ARhlRXaMitJKBHJqH1KMHAw3enNexwbVTAq2hmfpInDHMQQtxIK7C1nCArAShKCQPYCxrFyqoSjbPoQXQIHGNSUK3GhnQgxMXyuqK60hxyxy6AKDJVDgOGg9JcHv34AH3kgtIxoHfXbRI0y7R0BpGDZTVh0AZPVghRYBKPObgSwYtOfGqB4niKvmoTKMHF1ABQ6By3HIuUZTDGaCfAmQqI9M+l+Bs9bG1CgltlOzrY5SoJqpgGK9WVvXFChwwR96KUAJV9WYNlyU/UbB3y0rSbPNKul7VTnnMOdu86z94H8sKbyfrC58DkH5yj53hAAYecov68ZMK5JBd0iGHSgLmmHdGDx78OgOI63FhZd8XIGeLs36pwcfMlRRwtoqmwpm6zlZg8Oty+p4APXeFL8pgGK0bIlFBMvvkE+P/9v7x7z3ztNvvp+fQ5f/j+8ePpreT3P8F);lineShape=1;strokeColor=default;" vertex="1" parent="1">
          <mxGeometry x="173.3630743452793" y="585.8676454341631" width="8.16498745764797" height="14.44827293652075" as="geometry" />
        </mxCell>
        <mxCell id="uhHyhwN9qYvKIad209VK-12" value="" style="shape=stencil(nVbbchsxCP2afWUESEJ6TtP/yEyceqeunXHc29+X7Y7cFZvFcd/2whFwOIAGfnjbP73uBgpvl/Pp6+7n+HzZD/xpIBqP+915vOjTwI8DP7yczrsv59P34/P8/vo0WU5P304/phN+zThJkMOEovB7/lKglr8fPs/2h/HY2wt39oQQowMQSNQBuELI24Ci5/UeUoDE24AqwKUDZE0KtwEYAgSTtMYkrgvpAZUgOUnUALX2AI3J4bVojtIDCiBtA/KK11rdrBMD9YAFD+8itFCYrQtK2wDKULAHSCvm+5XQ3ybrCOKoCQnQeFC5OIVABDalFqieh9RovwKiKz9iwD4HVXD2aI2tTg0gFaJDayxAsQcUYE8bBJlXAEcbkoHKKiQnaSVRkk06eR2UoCRLa6wOoNpBoz6LB7gOrqU0HJYqt45cis8pnEbMpqlVvw5AqE2VZQM5tKYC4b4ejQyC1kV2suYAuRfTNGi8pg6AhibdAY4HZIgmJHIbQns0GG3U1uZ3ALyQEKSvnK4IdqaAjm+zgwiKI+/VQrmx5Fbx3NiiaOPxtzTbcHQwe/OiCaCZax84pyubaKJ3o9EpX3rJ6axwkqVkt21ou25roDIZ+xs9Q/Z8zz4hFL4jnqQdWO/IN+emxY/xKWgvPH695LrAPiaH/7gT3rDXh38X0JfxcJjvr8v/9sKqn+bLLj/+AQ==);lineShape=1;strokeColor=#CCE5FF;" vertex="1" parent="1">
          <mxGeometry x="461.9677889126683" y="552.185280051903" width="3.4000658344988812" height="13.84495359390816" as="geometry" />
        </mxCell>
        <mxCell id="uhHyhwN9qYvKIad209VK-13" value="" style="shape=stencil(7VjLbhsxDPwaXwmJEkXpnKb/ESBObTSNA8fp4+/LrbGbiLIn9qlA0Zu9JlckZziktUo3L5u75/WKw8thv/u6/rG9P2xW6dOKefu0We+3B/u0SrerdPOw26+/7HevT/fH7893k+X06dvu+/SGn0e/SpomJw6/jg8Caf3z4PPR/HH79M48NorZ2Us7b58ihersQzhvn4WqdvYZ2ouS9vYxwQRKosCdAysJdkguIqGmIKRCEjuHwqQZ5JxIQueghRqDogZKPQi1EoOQmCn0KDchSRDm1ufQlArIISpl6R0aMQAuZtLeIQZMjRjnsl/q0eaiXBhToRquSdpSYF/VjHDzvdOYCoKNYulhbiQIBKp9PLUQR/j+HoLKVFEz+/i1kZYr6qMK8Rrqr/kjMXLiYg4CADBGaH9CsVcABLK9r6eQyUEBJRLT09Y5TE9AjTTMlFkcCkWQw9TqfWuKUAIhtaFvPjjBWJySz4EB76xNWk/UEklA0taHvqwyI3Ma6bdOX6AOxAKP4JFMQPIsCe67QSsVlESm5NozQrlogaqTbZstIIdq7TI4FMSNYVZZR2egADV4MllLV0RXg3qYVQzKaj+XPiSNUGQmB0cmpQRysJCqc2A4oC1pp3vS4AlWVu51xjoIccl0t/XAWY9moGRGDR0cFIRk5PMhKVYBpdgLU1m2iHMN5KZPsTNxUzd3Qp0HwDmH4ri0FPq0Q/W7m2GfUQ4ys3/pB7ze2kAOrqd5hvKcGid3QoJKdrXD1A88OAB6G0zZiQAmn8RBlxo8IYlnqxUaqcb/dfKfWSfRdvU31kmgkSfXSSSRg7pY/GA8G0ldQNMWA8aCnZDc4BH8zzB6/co8T/jTDuxVflp5Qe9P/8/7kAxGJNrjBcCEO1JIf8FgvGqgqoPcMd6q8vzrYh8wCH6BsYwYsMIg6CtqsCMIgv/3HwVu28NiGxnmO9rbExD/EI+JEGiaIV2BK+pQzQQH8gBWnHeGy7iw3CZdRjU87D80tw9v12YP28fH463b+9/9NZs9Ol7Rpdvf);lineShape=1;strokeColor=#CCE5FF;" vertex="1" parent="1">
          <mxGeometry x="206.04694337742512" y="581.8034813239065" width="14.194794473178003" height="11.7883301917001" as="geometry" />
        </mxCell>
        <mxCell id="uhHyhwN9qYvKIad209VK-14" value="" style="shape=stencil(lZzZ0hy3DYWfRrddzZ28dpz3cJXlSBXFcslylrcPEKVH0zg9X/u/08IzzQUEgYPlXfnh9w8//fb+Xd5///rl89/f/+vjz18/vCt/eZfzx18/vP/y8av96V358V354ZfPX97/7cvnP379+dvff/vJR/qf/vH5n/4L//6G27dUHJT3/3z7hzG3Wf/3L3/9Nv7Tx19P4+sex9dJ40eN40t7PT5tacXxHcePLPOH+eSthN9f2w6/X7Z9xPEJfr/IeteWx+vxdas5ji/l9fi27buMh/m0rcl8/v/Fy/F9SzKfCvLQt95lfH89fsj52njYn7GNIuNhvfPq9xeN7ymOH/D7Ji3n/Zn7lkF+7HTO+zMTytva+lneZj6++GL8aufxZUsJ7otN9ywQs24ZNsgA7XwCs919YbYImCASKW057GnHMzBAOx/yHFtjwAq7aloLblkyNREAi3cpRz1kgEZ6yxTLioBOXyhbO0vS2o+fuAbU+AUDFDqHuo09AnANbSspAnANJgg5AgYB+pZnBEyakumjKmvgLywBZBKNcfz308EtBtQZAZ0u0IhvyFx8cHPbewRkug/z0OlPgJ0B63zS8/Ev1wCT/j0CErwjboiECzRwSgboYVs7LtpMhRymZI8jPD0G6AJIoIsNsES30n1wayRFQINtNUC4ogag59bskdRkSrRL5TC3ngBkEJoFE15cAyyakqmZHrd1py+YmtFzoF1qIq31uFLXgC5XtKKVZ2bJHpRAOQytV4AeABkfRTdkegQkBsQvJBaNdWzikymDu/R40Z5spQXiXfYLY5XugwHCORiArqgBlphvZE6WtBWxhwtNyRwM+QIpspIP++7ZIyEPI1+4VOTyGCDaxBNt9FIupkRGqwGC+TPGoXheAUYAdHwfSo1m6GgsS6aFgmFvmo/W0KIiG3nroL1LF9cwHe/qNcB8mfOiOz/sBpjng+vzeGKuAfPw7Z4AiXbJXuU9AnYwTsrD23wABlozBgja2wAk3nW/+AJ56AYIr6hPCXapijvgADjpmqNV6QC4QAYILo0DaNF2gbIAQJYMMPQLtGix7g1AxroBoiwNlKX6sF0eAL7TBgi+qAHI9q7teGSfAIUW3Q6v7QlAV7SKw9EbeorVbMgeAcjf9GjoGiAxYAoAvzDiO20AcgcMEHepoSltgLhLlYVPWBYD0AtkgBZUZeErOkWWyqF4rgFCtBgA9dKD53laww7i3fbo+BmApNUAwXTobN23FH0gB9AXUuRmHEDsYZL3oTJ9mA9D4QmQaUo5EoIOgINrJTqvnQkpA1QVPpAlAyw5aXqnW43ucWf/wQBTvjBpSsKcOIAOrl1sK6l7A8QLdHNw/a3i3Q9L+3lKJEs9Oq+uZhgQ19DQum9DHpSGbpkBAv3uAFr0iDzfzYPS5uHbPgHIATdAMEN7Y1maYjr0w++6BqyLKZEybkvspcb3YUXbuz8E/hVApZUssr5HztjvNKyhC43dG1LABoh3eiDr0JPsEoeKDNDOaxg7ypIBoreb8Yr2HO+0+0C0hiwufj0ChK8AcUrj4NqvASXukgdEaA1FyP6H//sKENmfcjzE14AaOYFZj6jfK0AkBvmNc+U+IoC4GbchewR0BlSlvGjRLRLld4AeI6E+JXiB3JYXUo10qwEi7/04mWvAOJiYP0nbGaDLLuGdVma9IG1ngCbCR/FK0xGRSczICXRh4SbTFKZUkjBYpCqHBPDsThNHNlKUpdEwhmJaqIaocUEPxf47yNLYkYo3tRWtmQcDew1oh/H//GQxIFoCBW3v0SOpZsqTXBqn0EoEkJdlxxQtsnSwZteAGe+0P2L0hRlP2p7JBErA2dWzqmxMSDmlfD5ps2Qx4P94Mx+AjFrDrksIibjvyIBge7sPD8LnTH34QkXmxK/8eQ214INiSiXQpzXhozglL6Xu/IUaabsyD+LiFSDE2MtA8Z4tugOlI+swe4yAG4CME88KOJsOpR4/cQ2Y0WMvGRWZh37PgDwPJvwSsFKk7XI7LNlrQI4vUM6o7g2wznopcUbOKtGaScyGrhqNk9TRLVvCJCa2vZeYP6liHMgA4aRTwfuweszjMQCpewMEAytxOGEJz5cSao0liQUpocdugKA10o7mz5pbCgkeLHtizAyM0awpNPkR2roev6L91tDutvHhDApyIDY+HMHN/qw4/x1dExu/4u8TMevjz+tNqF2WvIUZ+cO0S8C1clqHAhrq7PUI+H6XCKIPfXywn1k9ij69ycZb0bGyK1BIpA2Q3ggI8a7bGcVEsLsd7bKjvEPh0reD/vmT49m39fmfJYJlzse/UaYD7X57Z0LM9PZOzvj7N3d+xd8nk9nHj7A/mM8pN4a9hMsrSWE6/UDHuIcuYKL1qxvECbV6AJ5y+qYTuwfUs5q2t/tmi0KgPlXMpVlTplTR+PWXMrzdjcVoRqfcjC7K5lwj3svEAWI3J8IuLbSW3WBJEYBr6JE897vMgF0AlP5pZl0wTfNN9nSLJ+0FAmyaRnV3Y9ZV+UJBZs7N67DoxueQIxeeH0mtL12EYCYs1sEpCl/JeHBTdEBp6CK4I3VedOGyA3PVwkm7Qwsn7c7g+RwqG/Dubp4XXZn7mzVaX5UTG91lDm5/w/jWLNG28NA9bWuJ2QmV03Cn5Iu2HT0vpy6ETSF308mR8/Pj4VY6OKnw8UAifWGPF6ixQzvlBe0ZL5CTVOcveEoGbOv3BL0ndpGqmi6ItsllMkrlLSY8JY+9L4wzKh05dsx/GE1Km3Y0hZ1S1egTPFlO2kr0iZLRRokO4RhIFjrxHGIS+xGEe0ltSxoukra7hHoaPllDKvDmQDbFAwBST0AcbJd47+KIgQcxzvdhMfHcRbxXQSOxSzq0c0S06BEp1cVBbg8mBb9tYF5Wl/TPxbmWGhBzs5FjdLE2hSlVDerdAwJvtjj3WAOTayE97ykeKwIyXKAuPPLiYpZeozXz3d6/BpTo4a6JlrEBwju9biL7OVoCi7OmPIwupVcYvs1xl7xchhYtWeaTmZiuiqxj1YUBYo1Qw/eha30Nc7CeYREAibMT9vgojoV5KJolYg8x5gNJHopnyoN4a6bL4HRozaUZg7PXRHuPgda95gONgbLUJMvc4738BZ0SXVHNmjLATZrVxcN+k/klFQvE+3huWZhSxytqgFCZO5grdbNWrBlM5OoirZwkqzl+BsAcP8kiHJmlVfIUDUCBGM2EdACdg+RaupFIU5JsTgMQiaD5ogagFCXNSLVtTW/KeXUAqRnJqr07OMnb9YQJEg3JDPaTpkVL7rHv0puym+8BMRmtIBGiGdpu778pB3zwC+TecwBwwMTz2KUKiRSZAXLYpYbvtOfih/vQsVbrO2Xw/D4wIOYDDbxAWrHgbxwDmgAocKhVF3dfkLqOwR0AtHLE3wcuNQlEiJ0DWfda/TI6Jhtofc3dSUsFj9fMUeWI1AgZgAwsrULyRC4uWwrMiQNoW6WSajDVorVaN7llWg3mAKpNkXqzcVOQIxVto2EartbMDa7g0ao8B1Cxo9T9GYCsyiJZ5qMhR1au9BLWwWqnl4HbWvpFHSw9KF7hGaiWnatUq2QG86NYatRLs2LtYini0nBqTJHERmfCqcJTanknJ1xrtbABiLbTemTPo+IvXPiiXIQdY+Qc/NKqbdtWPDipC3cAlbVK5bkDSLz3mC9qACL7vXq+x0Vnag6xLjpi4BckOdPDMHAfvMeAdLmh6IB3MZBmKeRaep8EAdDBecZQYE4SvqLa62Flbt0g3SQWRwe0X4UBKFNeO2Is9lC058b3JL5XgMiGFrxA2jdkcbRMO5PcAaT3ySp37Vi6fAFlKUVT2qdEi96jgbUqr0Go+NWQ1/AuN2FKHUOE3kcnfGHetfYJJILTp3CBtBfQU0bJNULaDXnKB0ifNjRaC8l7bZnki+AuTlGYuEvfRdunyZ2otLHURIPponXVxBDHRXOsyU3KtP3WRD1z0eCLex9etBBb6ARpk7LF3VK0Ddri9ofeaK3FNaDwpeiy+w1iQEgUWA828hUg8NhrYEzEG96FRXPeq7fUC19oSGx4Xq9oMu46qI8iRV6XhON2TgEXe4xLKFaMyN+YMlMK7Nh3kH4E3kGQAsdiE3cMJIgv4+MpPHMRbCGuWLpu3nRAlK6es2NgULqG3li30pXUx7+l6+nsmAQiXVXn4BZg0Vu18ZTAd+VgkHxKTsqNyyNdbW08mbXSNXcOlLernABiDfeY2D+ZA9xl/zvybXs04yc3atmlS2rDrFd1priaWzJ8Znnj+IydaXQ+CfWnrnfH5BvZz7Ewj0vO66ZLsMjDmGiXvr0L9N14+8P3ltO/fPz06VvH6uf/jy2q7Z++tbcuP/4X);lineShape=1;strokeColor=#6666FF;" vertex="1" parent="1">
          <mxGeometry x="154.4455960456246" y="636.3806472798437" width="641.1931363853408" height="19.825070589835377" as="geometry" />
        </mxCell>
        <mxCell id="uhHyhwN9qYvKIad209VK-15" value="" style="shape=stencil(lVbbchsxCP2afWUkEJJ4TtP/yEyceieunXGcXv6+OBu5hmRJ+7aWOeJyOKCJbp63d0+bCdPz6Xh43Pyc70/bib5MiPN+uznOJ/2a6Haim4fDcfPteHjZ3y+/n+7Oluev74cf5xt+LThB6HRGYfq9nFCFkl5Pvi6A3by/ArQO2AyAE6S6DigCyAbQBSoHAAJKBiAMOfBADLVYQIdG6wBsI+IByEmTCLLOHQp7Fz1wkRO04pOgEmQNLfsqSRTRiPdiT5D6un3y9o2BJbq/o7GvSjyu21dAW9KaQw6yNp6tKFfoOSAtgdiImECCjFHbLHsABylQh+Q8MJSgRoV90qw+g5BUKmzFUznUgkZcHG0ILfKgABtST0BB0hpSswOgNyiBB02abVmFxslaWcl6kBbmoMSJzUFkNMvHgOx5UEBEXCbITs516HWlu99KcrHPn6hTrPo7D17W1Gk7T8dsDmqqWrActDSafWW6OM4qQYtm8P/aIySxE1XnY8AANxCnBMAggYpDJ5c9BSkirPsRryULxlEjX9F4ITTtyOLsKYi/v1NNHhd8aC/KpxW+UhLEIwW62weQo/sbdFt/HcgcMKyKcks2t7Clr1bqQCCGK0dXqthBoYu6Bi5UtMV2HSFQlAT6rfbJa+cfnkf68fdx9TDvdsvb7Pp//xjTo+UhR7d/AA==);lineShape=1;strokeColor=#6666FF;" vertex="1" parent="1">
          <mxGeometry x="176.19355621535442" y="598.518794408981" width="4.859070712494421" height="5.611566977935452" as="geometry" />
        </mxCell>
        <mxCell id="uhHyhwN9qYvKIad209VK-16" value="" style="shape=stencil(lZ3ZkiXFDYafZm4rcl+usf0eRDCYCWMgAG9vb8nj6q6j/5yv6LtZ6u9MZUpK7f2pfvPbD9/+8vlTSb/9/uvPf/v8ry/f/f7Dp/qnT6V8+emHz79++d3+9Kn++VP95vuff/38119//sdP3339+y/f+pf+p7///E//Cf/+iktHrg4q6T9f/2H0Y67//ctfvn7/45efHr7vM36/6uvv85Hz4/fjSIW+3yV+n8fr78uxUvy+zNff12NsoTe//r4dI5xPOxbspx8t0FuPBedppxH2YxQ1+n6G/WS8r3mUcJ7pmIm+H4/f932UTt/v/vi9/QQ4z3XU8L2dP/z8dcxHfuvtmHD+O/KzfU/nuYXeft74c/5MRx2PAGM4ONCcj5IjYJAEFCFhnELxHFAFMI8MNOd2iuAFUIkGO/MdAY22ZGIwI6DTCv0JH3W45zzOHV8AqFjG+fMux1pBcgywAg39qMQaduqBhna0jYDRHgH12AzYCqBTWkfZcUuZaFin9F4BvEJQ2HcrmD5pH1phH11WSLxC5NZ6XuXzNyTFR8qPFXjJAK0KAC7OAP9X0hcaSGv4uymAQSvk+DAbYINi9ZdWNHGmLZWjiqosoOoNENm748UZYIvyJmVvr3lJEUASZ4B4ce086FeAqAQqvm9mMET2rnysdq9DTolW6KdyvzzR9KS7TRJsAHti6JT6+fMuRsymizMr5nFLN1aYAWowIycqMgNEu20flWiw1+CRvWfGF8gA9XGFWVni5jEfiZ72iBEvrXhxcx2dVrD/fgSsdOrCV4DwPqx82qPPATtaM6vgK2qAQLQBMgBqOtKKWyK9ZIDArQYgD8MAwSQ2QId7qDmyxs0pGaBtoQEurtohpnhKdNMGiDdd8R5qPU/9Aqhg8xmg7wjo5Ci9vWjXFejiWhQgA2RaoZ2W/+WU8KbfHqjrsdKW+tHzh+7BJPhjgBENLAcQL5kimxGAzDdOpXIVUSJ6ng7bhVsHscZ8wt7k8xlgh3tITLSYoXOfB/0KEF4gA9DDXvf5ol0AyK07soYByPEzwGoRQJGAlqJxYqdUQC8ZYOZ4D0RDy9EHulHGBtjCfPTGtXLaX1e9RIB6PrJXrUGAFp0m29IGrdGabKmcMY7ngB5DIM7etKV+DGE+vOkej9UAZOi2cTLCxRKoRPQ4X7Q3wDwWscaIIjoHmnBtxjCFWTOTtjRFgNhpMkAwpefbM/kcsGRLZhsQ0Su6+GYkkmtpgB0A61gUDdxnBOACIHfAAEHdG6DBPfR0cs4VACsYIETUDECupQFiSHPixRkgeIoGoJhaz/EFMsAAzWeALgAyTgwQDF2ngQDlySlViuOWGERw1gCtYW5eFeYjbu01eruD1Yy5quGUTB6IvT1elSKA1ExXP26feuQVYKrEEbearfGoyPym6ZRW9B9GR8u4qxIo6B6b95xCyD7hs9vFabI16QUyQHTxx8m/rwDB5vMgM6xgOy4SRBhAgwG6ROFIkRlgSVyjAS+NHD0UEylyBwxQA9GJUyH5VCoXAGk+AwR131jijHOKAMheMkAIn7a3cOcrQNzSQkN31BiFs3d1EA31mAEw8EEZLV6cW1DESy0G+81Go4d9SDqhsRnqIh9OKaP5Y4AWAMZLJEBdtpQwh+JpyUftXdl/MEDQfAYoDFhhhYVOk2nSwK0GQAGa0Viv/MYZIJyS+120gmhvA1S6B8kPGqARL62YwKvsKfozPgRANOzovN5d3I5x77rQwPJHVgCDkrTiWr572K8AQUQNQEGE+SYubwAO0M4sW2KLbObo0twDQkDKaYCLmyV6KHVh5tUAS26aTLipyjgh8xkgpLNNkeEKqowzhoCnROEMUOji2unxXGggS2D2aN03NkOnROEMQEEEA+iWyHQw37YIYNIKI2oNj6UQDZJO8FgKKAED9Eft3QpG4eYUS6Cg7f0eMrgC6JRWTEK2ykpgx4RFK3ysb+JyAVCdwJR0ggES0SCWsd3DAMASzWcA8h8MMIW9qYJn5XPHFwCp+yXphBuZXmq3Fgz2e0hZWQO4dVVh74rysCSdYAC8hxYLnQxA7G2AEIVzq5K21GPkpHFxhAGaAMhTNEB4FN/Dnc8BIwY3XeLolMaTi8NjHbH+rXE6YU15UAqacAZoQUQzOq8GWKL5KCq9VkyZO3vTxa0YdWgFrcq1RVVmtIwNsEWmKcOxU3Tx6+I6NXtvgnEy0RLYOYaLaseg2hZftHJCe9d4DzWjJbClOKIsdMt2i0UqpeODsvtpab8BClrGBghbyutMDz8HjGic5I4VIXvGcFHOTMOMamahK2rfx5JWrITb4mO1u++DZcIpzi0OU8bY7N5R6XEYx74P55Mw3GDfBzMmYbTBvl9xP533E3LABUOa/v2I53/z80OqEs8zpxSrCXLCp3OLkZS5xM4Bj0eUJyaw/EwfafCyvptLCEyXMA/itzwiAJXRjhVCXgdIcrZjHiRzWsMAwea5UxU7qrtcsLRLAQtje7qjju6nkswFF3qmCWt39NISmmzKFQmjpU/Y7gyq/UG+rhgVV8EZ+Oo/Ec2N1fgq+168/SHlkgeaa6q97AG8UddBPb73hPxB/euSySt8GNA+qizCk5M3GyL6pm2MMGwpxbNjRXNtxZpiA+AKYjbnhe6L2xUznlK5sVzCTRfsvXDbKNzDYIXXY9WBywOtILEkt1FphRY1XuW6hl3jltqNTqqS82Hf2e3s8gjoLKKSvG7cfuG+Qlhhn97DS29EMmPos4le6hWVgHtUYQWuHl/ayDNQptUr9M4i6hQSATIAZTPUs/VkMznb4jv3iY0F6p07DRww0L4ZykVrhMFTywSQGEbnN06jJN43w4AkAAzcSKSnd6ZBYkm2Ar2iGq1yGkgeJB7mTVu0JYm4eTsSRw3Dw+6sQbwkUcPOmWKNS/bNIiqRz75ZCUhs1bZEddEavTUA3YPGh/tERaYRaO8j4y3FboqJ2T2NorvEUepA4vR9cthdMgF9YgBNcw2uNagpVCyB9zKb5wDJlxiA5EEzMt5HSjRIzqdv9MY0q+RVM7xCEfYmI1EzY51z0Zp7s1Mi80ezezcyrfnD93KnV4DYtLU5fyg50JHQf9AsqxfyEA2Sxx35g5niwRXwmou+A0i22wF0rKL53muLXgHiljJGJ7QmwACUStOqA6/AosoJqWsYCZ1XrZxw1mBA0BqD+5e0+mNw0EfrSxzwoQoWL2yjqjSpkXkvbHsFCP6DA2gFqfO5uzipJBqc7dZaJa9w5Hqr2EHLdaBab9U39kp7RZcoMpyT0MRu3ZjHHS3aS0Y0Bd+87k0FiLZUo73klaZE9FuL1hugMdFF4lGDWUN8UWNHpEEqHAf7QENaSO4BsXNzobE+sozQWGjN+DVJ1TL1t7rIS9UyORyutqTyGosu09n+egGQZdw1KcAxMq8pXhFAurVv6W9N6Iv2Hf24mbmKf0Uva/LsEwOEfr7JrmWXTjUzrqnl1uvTQ0A94bPrrqo0z00q1ZYae28ApAYPqeJfHIXTPgH3TmlL0olgAOxEkF6H1bjGXropFue8tF/DAFgBLx0hq6OnqD0nq3NRvnS1rI6KTPtmnAaSaenMMQC9D9r7sziVq91Fi6v4tX9pNaxa9g4pWYGCak2UgB0rbknifGtgUqpN6dFd6LG3GXlpc4a5zVh1sNlY9267xy3twl2P0s+33wZZvQIEY90A2AsnPYmb2y9aj+UiBsBTktoMA9Arqp2bu6Fbpr2hu6PpoN2nnpEgAZL+1j2wWlY7aPfAd1p7dDfHl7QL2As8iDXEtdwbFZl2Mu/b5urg4m9OrWs39iVT+hwhDd+bW3O0pXxzGb82rW/ujtC2+L3Q+NbGe7tqmi2nrf2bE0E6PGBzI5mOJzAAEi0DEPbAOjYdsXAPCEbfHqj6dEyE5yWJ+yQMtzltqaMuDIDcKvmEzXVsOq7DVyDWkIEgBiCHWkeO3N2D5BOc+RiQhL0pMaqDWVweaAUZ/bInKyYZLuM0AGvo+JrNsfiyow23eRhfkXloDqBRSOuJAJEDYYAkzEc5Qp/pGAA3M6xmjFOY/UNWYpGayLV5cNeI5bJuw90MjAqG60RzpnQZX9P54t4aZi+WLjmjpcdTckeOVwjd1YvbsYsUO0xWMzp8bHIZv443mzx+VAeoGaDwALVgnUyO9usQOAPgeDMZM2cAqizQQXaT593oqLzJg1l0GJ/nMIiXZNyfE80jC0MWchY0XHVk4SzYv61DEWdBH1/HLk4uLNbBjr6lD42ONADOLRVlPLlRQMdf3q9QhOibIaFbaMDJqDIk9ObidAzpjcTpoFMD4AhPGaU6E6aPdVjr2HzTMg52LExA6MDZwdVzOtLWtkRRNR2aezNcRsfyDu591sG/BkCJk9HCg3PmOrx4JtQaMh153tTyRwomjx6TojBXezgNOu4/oxk9ZTBTwoJhlbXMLcaikLgXRKZ3T+7xHBIgb0ivTPqcXJXXhF6eti7T0ydXpsh0dh9bRSIg+ppdDJkuPzkZJdPr7Xvif5mO78U8cP5J7muhJk0xCzq5WilFC3IOjCinqLNmx5xPina88RuZ5VL+PjmMqd/zKDbZjys44B+h14dn4W8ziPOOuNxS7msMfLyFHwbHIz/+2xjuvrc/vP/qh++//Pjj198ccf3/+Ksi7J++/pqJ+uf/Ag==);lineShape=1;strokeColor=#6666FF;" vertex="1" parent="1">
          <mxGeometry x="163.05074437214512" y="653.2312473592162" width="612.2410562379877" height="12.964443285291834" as="geometry" />
        </mxCell>
      </root>
    </mxGraphModel>
  </diagram>
</mxfile>
